<?xml version="1.0" encoding="UTF-8"?>
<svg width="12px" height="15px" viewBox="0 0 12 15" version="1.1" xmlns="http://www.w3.org/2000/svg" xmlns:xlink="http://www.w3.org/1999/xlink">
    <!-- Generator: Sketch 47.1 (45422) - http://www.bohemiancoding.com/sketch -->
    <title>icon-location</title>
    <desc>Created with Sketch.</desc>
    <defs></defs>
    <g id="Page-1" stroke="none" stroke-width="1" fill="none" fill-rule="evenodd">
        <g id="首页" transform="translate(-524.000000, -45.000000)" fill-rule="nonzero" fill="#FFFFFF">
            <g id="位置筛选" transform="translate(518.000000, 39.000000)">
                <g id="icon-location" transform="translate(6.000000, 6.000000)">
                    <g id="定位" transform="translate(1.000000, 1.000000)">
                        <path d="M8.66881756,8.58584522 L5.44109087,12.8123131 C5.18525946,13.1431782 4.76758077,13.1444586 4.51302981,12.8123131 L1.27249872,8.58584522 C0.492456237,7.67699073 0,6.45724602 0,5.14812677 C0,2.30555565 2.23513159,0 4.9939621,0 C7.75228045,0 9.98741204,2.30555565 9.98741204,5.14812677 C9.98741204,6.49258608 9.48727318,7.6693081 8.66881756,8.58584522 Z M4.9939621,2.56830142 C3.61108967,2.56830142 2.490963,3.72351208 2.490963,5.14812677 C2.490963,6.57325365 3.61108967,7.72795213 4.9939621,7.72795213 C6.37581019,7.72795213 7.49644904,6.57325365 7.49644904,5.14812677 C7.49644904,3.72351208 6.37581019,2.56830142 4.9939621,2.56830142 Z" id="Shape"></path>
                    </g>
                </g>
            </g>
        </g>
    </g>
</svg>