<?xml version="1.0" encoding="UTF-8"?>
<svg width="100px" height="100px" viewBox="0 0 100 100" version="1.1" xmlns="http://www.w3.org/2000/svg" xmlns:xlink="http://www.w3.org/1999/xlink">
    <!-- Generator: Sketch 47.1 (45422) - http://www.bohemiancoding.com/sketch -->
    <title>icon-top</title>
    <desc>Created with Sketch.</desc>
    <defs>
        <circle id="path-1" cx="50" cy="50" r="50"></circle>
        <filter x="-55.5%" y="-67.5%" width="205.0%" height="205.0%" filterUnits="objectBoundingBox" id="filter-2">
            <feOffset dx="-3" dy="-15" in="SourceAlpha" result="shadowOffsetOuter1"></feOffset>
            <feGaussianBlur stdDeviation="15" in="shadowOffsetOuter1" result="shadowBlurOuter1"></feGaussianBlur>
            <feColorMatrix values="0 0 0 0 0   0 0 0 0 0   0 0 0 0 0  0 0 0 0.148862092 0" type="matrix" in="shadowBlurOuter1"></feColorMatrix>
        </filter>
    </defs>
    <g id="Page-1" stroke="none" stroke-width="1" fill="none" fill-rule="evenodd">
        <g id="新房列表" transform="translate(-1459.000000, -2124.000000)">
            <g id="Group" transform="translate(1459.000000, 1997.000000)">
                <g id="icon-top" transform="translate(0.000000, 127.000000)">
                    <g id="Oval-Copy">
                        <use fill="black" fill-opacity="1" filter="url(#filter-2)" xlink:href="#path-1"></use>
                        <use fill="#F5F5F6" fill-rule="evenodd" xlink:href="#path-1"></use>
                    </g>
                    <path d="M51.030303,52.8209367 L48.2093664,52.8209367 C44.3144657,52.8209367 41.1570248,55.9783775 41.1570248,59.8732782 L41.1570248,66.9256198 C41.1570248,70.8205206 44.3144657,73.9779615 48.2093664,73.9779615 L51.030303,73.9779615 C54.9252037,73.9779615 58.0826446,70.8205206 58.0826446,66.9256198 L58.0826446,59.8732782 C58.0826446,55.9783775 54.9252037,52.8209367 51.030303,52.8209367 L51.030303,52.8209367 Z M55.261708,66.9256198 C55.261708,69.2613554 53.3660385,71.1570248 51.030303,71.1570248 L48.2093664,71.1570248 C45.8736309,71.1570248 43.9779615,69.2613554 43.9779615,66.9256198 L43.9779615,59.8732782 C43.9779615,57.5375427 45.8736309,55.6418733 48.2093664,55.6418733 L51.030303,55.6418733 C53.3660385,55.6418733 55.261708,57.5375427 55.261708,59.8732782 L55.261708,66.9256198 Z M72.1873278,52.8209367 L65.1349862,52.8209367 L65.1349862,73.9779615 L67.9559228,73.9779615 L67.9559228,66.9256198 L72.1873278,66.9256198 C76.0830413,66.9256198 79.2396694,63.7689917 79.2396694,59.8732782 C79.2396694,55.9775647 76.0830413,52.8209366 72.1873278,52.8209367 L72.1873278,52.8209367 Z M72.1873278,64.1046832 L67.9559228,64.1046832 L67.9559228,55.6418733 L72.1873278,55.6418733 C74.4817211,55.7011187 76.3108805,57.5781201 76.3108805,59.8732782 C76.3108805,62.1684363 74.4817211,64.0454377 72.1873278,64.1046832 L72.1873278,64.1046832 Z M20,55.6418733 L27.0523416,55.6418733 L27.0523416,73.9779615 L29.8732782,73.9779615 L29.8732782,55.6418733 L36.9256198,55.6418733 L36.9256198,52.8209367 L20,52.8209367 L20,55.6418733 Z M50.9287493,26.4353058 C50.6644311,26.1705378 50.3056687,26.0217548 49.9315482,26.0217548 C49.5574277,26.0217548 49.1986653,26.1705378 48.9343471,26.4353058 C48.9131901,26.4564628 48.9047273,26.4860826 48.8863912,26.5086501 L48.873697,26.4959559 L35.9354711,39.1295207 L35.9312397,39.1323416 L35.9284187,39.136573 L35.8085289,39.2536419 L35.8339174,39.2790303 C35.3932493,39.8295718 35.4338429,40.6226614 35.9284187,41.1253334 C36.430825,41.6209656 37.2244387,41.6627666 37.7761322,41.2226557 L37.8029311,41.2494545 L49.9089807,29.4283195 L61.318259,41.1281542 C61.6747766,41.4844199 62.1942779,41.6234231 62.6810718,41.4928026 C63.1678657,41.3621822 63.5479966,40.9817824 63.6782729,40.4948963 C63.8085492,40.0080102 63.6691788,39.4886073 63.3126612,39.1323416 L50.9287493,26.4353058 L50.9287493,26.4353058 Z" id="Shape" fill="#888888" fill-rule="nonzero"></path>
                </g>
            </g>
        </g>
    </g>
</svg>