<?xml version="1.0" encoding="UTF-8"?>
<svg width="66px" height="66px" viewBox="0 0 66 66" version="1.1" xmlns="http://www.w3.org/2000/svg" xmlns:xlink="http://www.w3.org/1999/xlink">
    <!-- Generator: Sketch 47.1 (45422) - http://www.bohemiancoding.com/sketch -->
    <title>icon-house</title>
    <desc>Created with Sketch.</desc>
    <defs>
        <polygon id="path-1" points="0.315767045 62.7840909 33.3741761 62.7840909 33.3741761 0.3388125 0.315767045 0.3388125"></polygon>
        <polygon id="path-3" points="0 64.6897727 56.4307102 64.6897727 56.4307102 0 0 0"></polygon>
    </defs>
    <g id="Page-1" stroke="none" stroke-width="1" fill="none" fill-rule="evenodd">
        <g id="首页" transform="translate(-478.000000, -877.000000)">
            <g id="选择合屋" transform="translate(451.000000, 750.000000)">
                <g id="icon-house" transform="translate(27.000000, 127.000000)">
                    <g id="大厦大楼" transform="translate(5.000000, 1.000000)">
                        <path d="M53.458733,64.6393977 L34.0695284,64.6393977 L34.0695284,16.0507898 L55.6225682,16.0507898 L55.6225682,62.4755625 C55.6225682,63.6655057 54.6560625,64.6393977 53.458733,64.6393977 Z" id="Fill-1" fill="#3173E7"></path>
                        <g id="Group-5" transform="translate(0.738636, 1.905682)">
                            <mask id="mask-2" fill="white">
                                <use xlink:href="#path-1"></use>
                            </mask>
                            <g id="Clip-4"></g>
                            <path d="M33.3597727,62.7842386 L2.47997159,62.7842386 C1.28264205,62.7842386 0.315767045,61.817733 0.315767045,60.6204034 L0.315767045,0.3388125 L33.3741761,4.96267614 L33.3597727,62.7842386 Z" id="Fill-3" fill="#3173E7" mask="url(#mask-2)"></path>
                        </g>
                        <path d="M53.458733,62.4754517 L34.0695284,62.4754517 L34.0695284,13.8868437 L55.6225682,13.8868437 L55.6225682,60.3116165 C55.6225682,61.508946 54.6560625,62.4754517 53.458733,62.4754517" id="Fill-6" fill="#5EADEF"></path>
                        <mask id="mask-4" fill="white">
                            <use xlink:href="#path-3"></use>
                        </mask>
                        <g id="Clip-9"></g>
                        <polygon id="Fill-8" fill="#4C96EC" mask="url(#mask-4)" points="33.5359375 62.4827273 36.342017 62.4827273 36.342017 13.8941193 33.5359375 13.8941193"></polygon>
                        <path d="M48.676358,26.3729744 L41.9536591,26.3729744 C41.1673807,26.3729744 40.5325227,25.7381165 40.5325227,24.9518381 L40.5325227,23.1846506 C40.5325227,22.6003892 41.0085739,22.1243381 41.5928352,22.1243381 L49.0009886,22.1243381 C49.5634602,22.1243381 50.025108,22.5859858 50.025108,23.1488267 L50.025108,25.0242244 C50.025108,25.7669233 49.4194261,26.3729744 48.676358,26.3729744 L48.676358,26.3729744 Z M55.6516705,51.9800199 L45.3004205,51.9800199 C44.9831761,51.9800199 44.7235455,51.7203892 44.7235455,51.4031449 L44.7235455,50.8838835 C44.7235455,50.5662699 44.9831761,50.3066392 45.3004205,50.3066392 L55.6516705,50.3066392 L55.6516705,51.9800199 Z M55.6516705,44.0455881 L45.3004205,44.0455881 C44.9831761,44.0455881 44.7235455,43.7859574 44.7235455,43.4687131 L44.7235455,42.9490824 C44.7235455,42.6318381 44.9831761,42.3722074 45.3004205,42.3722074 L55.6516705,42.3722074 L55.6516705,44.0455881 Z M55.6516705,36.1111563 L45.3004205,36.1111563 C44.9831761,36.1111563 44.7235455,35.8515256 44.7235455,35.5339119 L44.7235455,35.0146506 C44.7235455,34.6974063 44.9831761,34.4374063 45.3004205,34.4374063 L55.6516705,34.4374063 L55.6516705,36.1111563 Z" id="Fill-10" fill="#3173E7" mask="url(#mask-4)"></path>
                        <path d="M53.8987756,13.8868437 L53.8987756,62.4754517 C54.8582642,62.4754517 55.6297699,61.7035767 55.6297699,60.7440881 L55.6297699,13.8868437 L53.8987756,13.8868437 Z" id="Fill-11" fill="#8FC6F4" mask="url(#mask-4)"></path>
                        <path d="M53.8986648,51.9800568 L55.6296591,51.9800568 L55.6296591,50.3066761 L53.8986648,50.3066761 L53.8986648,51.9800568 Z M53.8986648,44.045625 L55.6296591,44.045625 L55.6296591,42.3722443 L53.8986648,42.3722443 L53.8986648,44.045625 Z M53.8986648,36.1108239 L55.6296591,36.1108239 L55.6296591,34.4374432 L53.8986648,34.4374432 L53.8986648,36.1108239 Z" id="Fill-12" fill="#6F9DEE" mask="url(#mask-4)"></path>
                        <path d="M55.6083125,14.8678267 L34.0408693,14.8678267 C33.5862386,14.8678267 33.2183977,14.4999858 33.2183977,14.0453551 L33.2183977,14.0239347 C33.2183977,13.569304 33.5862386,13.2014631 34.0408693,13.2014631 L55.6083125,13.2014631 C56.0625739,13.2014631 56.4307841,13.569304 56.4307841,14.0239347 L56.4307841,14.0453551 C56.4378011,14.4999858 56.0699602,14.8678267 55.6083125,14.8678267" id="Fill-13" fill="#3173E7" mask="url(#mask-4)"></path>
                        <path d="M34.0984091,62.4754517 L3.21860795,62.4754517 C2.02127841,62.4754517 1.05440341,61.508946 1.05440341,60.3116165 L1.05440341,0.0300255682 L34.1128125,4.6538892 L34.0984091,62.4754517 Z" id="Fill-14" fill="#E7F5FD" mask="url(#mask-4)"></path>
                        <polygon id="Fill-15" fill="#F0F8FC" mask="url(#mask-4)" points="1.0545142 0.0302102273 1.0545142 0.571261364 30.268321 4.65407386 30.2609347 62.4756364 34.0985199 62.4756364 34.1129233 4.65407386"></polygon>
                        <path d="M26.5100653,32.4320824 L12.5450369,32.4320824 C12.1627926,32.4320824 11.8599517,32.1218551 11.8599517,31.7469972 L11.8599517,31.4437869 C11.8599517,31.0615426 12.170179,30.7587017 12.5450369,30.7587017 L26.5100653,30.7587017 C26.8923097,30.7587017 27.1951506,31.068929 27.1951506,31.4437869 L27.1951506,31.7469972 C27.1951506,32.1218551 26.8923097,32.4320824 26.5100653,32.4320824 M26.5100653,26.0052074 L12.5450369,26.0052074 C12.1627926,26.0052074 11.8599517,25.6949801 11.8599517,25.3197528 L11.8599517,25.0169119 C11.8599517,24.6346676 12.170179,24.3314574 12.5450369,24.3314574 L26.5100653,24.3314574 C26.8923097,24.3314574 27.1951506,24.6416847 27.1951506,25.0169119 L27.1951506,25.3197528 C27.1951506,25.6949801 26.8923097,26.0052074 26.5100653,26.0052074 M26.5100653,19.5779631 L12.5450369,19.5779631 C12.1627926,19.5779631 11.8599517,19.2677358 11.8599517,18.8928778 L11.8599517,18.5900369 C11.8599517,18.2074233 12.170179,17.9045824 12.5450369,17.9045824 L26.5100653,17.9045824 C26.8923097,17.9045824 27.1951506,18.2148097 27.1951506,18.5900369 L27.1951506,18.8928778 C27.1951506,19.2677358 26.8923097,19.5779631 26.5100653,19.5779631 M26.5100653,13.1510881 L12.5450369,13.1510881 C12.1627926,13.1510881 11.8599517,12.8408608 11.8599517,12.4660028 L11.8599517,12.1627926 C11.8599517,11.7805483 12.170179,11.4777074 12.5450369,11.4777074 L26.5100653,11.4777074 C26.8923097,11.4777074 27.1951506,11.7879347 27.1951506,12.1627926 L27.1951506,12.4660028 C27.1951506,12.8408608 26.8923097,13.1510881 26.5100653,13.1510881 M34.2786733,6.6518267 L0.881230114,2.03534943 C0.326144886,1.95594602 -0.0634857955,1.44407102 0.00853125,0.881230114 C0.0879346591,0.325775568 0.600178977,-0.0634857955 1.16265057,0.00853125 L34.5527074,4.62500852 C35.1081619,4.70441193 35.4977926,5.21665625 35.4257756,5.77912784 C35.3533892,6.34159943 34.8341278,6.73123011 34.2786733,6.6518267" id="Fill-16" fill="#5EADEF" mask="url(#mask-4)"></path>
                        <path d="M5.40412216,33.3483608 L1.04727557,33.3483608 L1.04727557,10.5544119 L3.79574148,10.5544119 C4.68284375,10.5544119 5.40412216,11.2756903 5.40412216,12.1627926 L5.40412216,33.3483608 Z" id="Fill-17" fill="#FCCA4C" mask="url(#mask-4)"></path>
                        <polygon id="Fill-18" fill="#F99403" mask="url(#mask-4)" points="1.05440341 33.3483239 5.41125 33.3483239 5.41125 31.9559943 1.05440341 31.9559943"></polygon>
                        <polygon id="Fill-19" fill="#3173E7" mask="url(#mask-4)" points="10.1935511 62.4827273 24.115 62.4827273 24.115 44.9113068 10.1935511 44.9113068"></polygon>
                        <path d="M24.6923182,45.7479233 L9.39294318,45.7479233 C8.99629545,45.7479233 8.67905114,45.430679 8.67905114,45.0336619 L8.67905114,44.795821 C8.67905114,44.3991733 8.99629545,44.0815597 9.39294318,44.0815597 L24.6849318,44.0815597 C25.0819489,44.0815597 25.3991932,44.3991733 25.3991932,44.795821 L25.3991932,45.0336619 C25.4065795,45.430679 25.0889659,45.7479233 24.6923182,45.7479233 M24.4688807,62.4754517 L9.64555682,62.4754517 C9.38592614,62.4754517 9.17652273,62.2664176 9.17652273,62.0064176 C9.17652273,61.7467869 9.38592614,61.5377528 9.64555682,61.5377528 L24.4688807,61.5377528 C24.7285114,61.5377528 24.9375455,61.7467869 24.9375455,62.0064176 C24.9375455,62.2664176 24.7285114,62.4754517 24.4688807,62.4754517" id="Fill-20" fill="#5EADEF" mask="url(#mask-4)"></path>
                    </g>
                </g>
            </g>
        </g>
    </g>
</svg>