<?xml version="1.0" encoding="UTF-8"?>
<svg width="24px" height="18px" viewBox="0 0 24 18" version="1.1" xmlns="http://www.w3.org/2000/svg" xmlns:xlink="http://www.w3.org/1999/xlink">
    <!-- Generator: Sketch 47.1 (45422) - http://www.bohemiancoding.com/sketch -->
    <title>icon-pic</title>
    <desc>Created with Sketch.</desc>
    <defs></defs>
    <g id="Page-1" stroke="none" stroke-width="1" fill="none" fill-rule="evenodd">
        <g id="新房详情" transform="translate(-370.000000, -636.000000)" fill-rule="nonzero" fill="#FFFFFF">
            <g id="banner" transform="translate(0.000000, 176.000000)">
                <g id="Group-5" transform="translate(360.000000, 454.000000)">
                    <g id="icon-pic" transform="translate(10.000000, 6.000000)">
                        <g id="相册">
                            <path d="M11.7251908,8.76549618 L10.24,7.12396947 L6.33160305,11.7358779 L4.69007634,10.250687 L2.34503817,13.2210687 L18.6821374,13.2210687 L18.6821374,10.250687 L14.8519084,4.70076337 L11.7251908,8.76549618 Z M5.78442749,6.26412213 C6.87877864,6.26412213 7.73862595,5.40427479 7.73862595,4.30992366 C7.73862595,3.21557253 6.87877862,2.3557252 5.78442749,2.3557252 C4.69007636,2.3557252 3.830229,3.21557251 3.830229,4.23175573 C3.830229,5.32610689 4.76824427,6.26412215 5.78442749,6.26412213 L5.78442749,6.26412213 Z M21.1053435,14.0027481 L21.1053435,1.57404579 C21.1053435,0.636030527 20.5581679,0.0106870076 19.5419847,0.0106870305 L1.56335879,0.0106870305 C0.469007634,0.0106870305 0,0.714198481 0,1.57404579 L0,14.0027481 C0,14.8625954 0.469007634,15.5661069 1.56335879,15.5661069 L19.5419847,15.5661069 C20.5581679,15.6442748 21.1053435,15.2534351 21.1053435,14.0027481 Z M1.56335879,14.080916 L1.56335879,1.57404579 L19.5419847,1.57404579 L19.5419847,14.080916 L1.56335879,14.080916 Z M23.4503817,3.91908396 C23.4503817,2.66839695 22.3560305,2.35572518 21.8870229,2.3557252 L21.8870229,14.3154199 C21.8870229,14.3154199 22.1996946,16.4259542 20.6363359,16.4259542 L2.34503817,16.4259542 C2.34503817,16.8949618 2.65770992,17.989313 3.90839695,17.989313 L21.8870229,17.989313 C23.1377099,17.989313 23.4503817,17.3639695 23.4503817,16.3477863 L23.4503817,3.91908396 L23.4503817,3.91908396 Z" id="Shape"></path>
                        </g>
                    </g>
                </g>
            </g>
        </g>
    </g>
</svg>