<?xml version="1.0" encoding="UTF-8"?>
<svg width="48px" height="88px" viewBox="0 0 48 88" version="1.1" xmlns="http://www.w3.org/2000/svg" xmlns:xlink="http://www.w3.org/1999/xlink">
    <!-- Generator: Sketch 47.1 (45422) - http://www.bohemiancoding.com/sketch -->
    <title>icon-left</title>
    <desc>Created with Sketch.</desc>
    <defs></defs>
    <g id="Page-1" stroke="none" stroke-width="1" fill="none" fill-rule="evenodd">
        <g id="新房详情-copy" transform="translate(-387.000000, -428.000000)" fill-rule="nonzero" fill="#FFFFFF">
            <g id="icon-left" transform="translate(385.000000, 428.000000)">
                <path d="M6.38348774,86.9091358 L46.4413374,46.4999015 C46.4999015,46.4413374 46.4999015,46.3827733 46.5584656,46.3242092 C46.5584656,46.3242092 46.6170297,46.3242092 46.6170297,46.2656451 C48.0225683,44.8015424 48.0225683,42.5175422 46.6170297,41.1120036 L6.20779542,1.05415394 C4.74369272,-0.351384646 2.45969253,-0.351384646 1.05415394,1.05415394 C0.351384646,1.75692323 8.83582325e-10,2.69394895 0,3.63097468 C0,4.5680004 0.351384646,5.50502612 1.05415394,6.20779542 L38.8865675,43.6888243 L1.22984626,81.6969302 C0.52707697,82.3996995 0.175692324,83.3367253 0.175692324,84.273751 C0.175692324,85.2107767 0.52707697,86.1478024 1.22984626,86.8505717 C2.63538485,88.3732385 4.91938505,88.3732385 6.38348774,86.9091358 L6.38348774,86.9091358 Z" id="Shape-Copy" transform="translate(23.835592, 44.000000) scale(-1, 1) translate(-23.835592, -44.000000) "></path>
            </g>
        </g>
    </g>
</svg>