<?xml version="1.0" encoding="UTF-8"?>
<svg width="48px" height="88px" viewBox="0 0 48 88" version="1.1" xmlns="http://www.w3.org/2000/svg" xmlns:xlink="http://www.w3.org/1999/xlink">
    <!-- Generator: Sketch 47.1 (45422) - http://www.bohemiancoding.com/sketch -->
    <title>icon-right</title>
    <desc>Created with Sketch.</desc>
    <defs></defs>
    <g id="Page-1" stroke="none" stroke-width="1" fill="none" fill-rule="evenodd">
        <g id="新房详情-copy" transform="translate(-1488.000000, -428.000000)" fill-rule="nonzero" fill="#FFFFFF">
            <g id="icon-right" transform="translate(1488.000000, 428.000000)">
                <path d="M46.3922629,46.4507651 C46.4507651,46.3922629 46.4507651,46.3337606 46.5092673,46.2752584 C47.9718229,44.7542006 47.9718229,42.4726139 46.5677695,41.0685606 L6.20123564,1.05304001 C4.73868007,-0.351013338 2.45709337,-0.351013338 1.05304001,1.05304001 C0.351013338,1.75506669 8.82648644e-10,2.69110226 0,3.62713783 C0,4.5631734 0.351013338,5.49920897 1.05304001,6.20123564 L38.8454761,43.6426584 L1.22854668,81.6106011 C0.526520008,82.3126278 0.17550667,83.2486634 0.17550667,84.1846989 C0.17550667,85.1207345 0.526520008,86.0567701 1.22854668,86.7587968 C2.63260004,88.2798546 4.91418674,88.2798546 6.37674231,86.817299 L46.3922629,46.4507651 Z" id="Shape"></path>
            </g>
        </g>
    </g>
</svg>