<?xml version="1.0" encoding="UTF-8"?>
<svg width="100px" height="100px" viewBox="0 0 100 100" version="1.1" xmlns="http://www.w3.org/2000/svg" xmlns:xlink="http://www.w3.org/1999/xlink">
    <!-- Generator: Sketch 47.1 (45422) - http://www.bohemiancoding.com/sketch -->
    <title>icon-consult</title>
    <desc>Created with Sketch.</desc>
    <defs></defs>
    <g id="Page-1" stroke="none" stroke-width="1" fill="none" fill-rule="evenodd">
        <g id="新房列表" transform="translate(-1460.000000, -1997.000000)" fill-rule="nonzero" fill="#FFFFFF">
            <g id="Group" transform="translate(1459.000000, 1997.000000)">
                <g id="icon-consult" transform="translate(1.000000, 0.000000)">
                    <g id="咨询" transform="translate(27.000000, 26.000000)">
                        <path d="M22.7514451,35.5727168 C17.7220591,35.5727168 13.5647317,32.5144941 12.9001077,29.8904046 C12.9001077,29.8904046 12.6130058,28.4698266 14.2310983,28.4698266 C14.8672327,28.4698266 15.7466761,29.8904046 15.7466761,29.8904046 C17.1602888,31.4795891 19.5335072,32.7315607 22.7514451,32.7315607 C25.969383,32.7315607 28.3426013,31.4795891 29.7562141,29.8904046 C29.7562141,29.8904046 30.7066908,28.4698266 31.2749133,28.4698266 C33.0608677,28.4698266 32.6027825,29.8904046 32.6027825,29.8904046 C31.9381584,32.5144941 27.7808311,35.5727168 22.7514451,35.5727168 L22.7514451,35.5727168 L22.7514451,35.5727168 L22.7514451,35.5727168 L22.7514451,35.5727168 L22.7514451,35.5727168 Z" id="Shape"></path>
                        <path d="M16.6701581,44.6941002 C18.307069,43.4300917 21.3259625,44.1786787 21.3259627,46.9398616 C21.3259625,45.7385238 19.9390493,44.7742457 18.8019723,45.2024924 C19.7223472,44.8558602 19.7223472,44.8558602 22.483472,43.815964 C25.2445969,42.7760681 25.2445969,42.7760681 26.1649718,42.4294365 C26.3120262,42.3740529 26.4634219,42.3309645 26.6176011,42.3006148 C35.865521,40.4801863 42.6395376,32.331332 42.6395376,22.7875145 C42.6395376,11.8036242 33.7353353,2.89942197 22.7514451,2.89942197 C11.7675549,2.89942197 2.8633526,11.8036242 2.8633526,22.7875145 C2.8633526,32.3798809 9.70545475,40.5576123 19.014928,42.3256846 C20.3556661,42.5803201 21.3259624,43.7522412 21.3259625,45.1169455 L21.3259625,45.1169455 C21.3259627,46.6314072 21.3259627,46.6314072 21.3259627,47.1251153 C21.3259627,47.1953671 21.3259627,47.1953671 21.3259627,47.2283928 C21.3259627,47.2389222 21.3259627,47.2389222 21.3259627,47.242138 C21.3259627,47.242271 21.3259627,47.2422988 18.5177434,47.2423373 C18.4962003,47.1491781 18.4848066,47.0480812 18.4848066,46.9398619 C18.4848066,46.9398619 18.4848067,48.339711 18.4848065,45.1169457 C17.8708201,45.0003363 17.2655799,44.8590302 16.6701581,44.6941002 L16.6701581,44.6941002 Z M18.5177433,47.2423364 L21.3259627,47.2423016 C21.3259627,47.2419836 21.3259627,47.2419836 21.3259627,47.2412809 C21.3259627,47.2393146 21.3259627,47.2393146 21.3259627,47.235935 C21.3259627,47.1849546 21.3259627,47.1849546 21.3259627,47.0913549 C21.3259627,47.0912385 21.3259627,47.0912385 21.3259627,47.091122 C21.3259627,46.9776766 21.3259627,46.9776766 21.3259627,46.9398616 L18.4848066,46.9398619 C18.4848066,46.9398619 18.4848067,48.339711 18.4848065,45.1169457 C7.97129334,43.1202 0.0221965318,33.8821627 0.0221965318,22.7875145 C0.0221965318,10.2344971 10.1984277,0.058265896 22.7514451,0.058265896 C35.3044625,0.058265896 45.4806936,10.2344971 45.4806936,22.7875145 C45.4806936,33.8299507 37.6062386,43.0332093 27.1663445,45.0882748 C27.1663439,45.0882741 19.8033454,47.8613303 19.8033454,47.8613303 C19.1812656,48.0956184 18.6521048,47.8233607 18.5177433,47.2423364 L18.5177433,47.2423364 Z" id="Shape"></path>
                    </g>
                </g>
            </g>
        </g>
    </g>
</svg>