<?xml version="1.0" encoding="UTF-8"?>
<svg width="20px" height="20px" viewBox="0 0 20 20" version="1.1" xmlns="http://www.w3.org/2000/svg" xmlns:xlink="http://www.w3.org/1999/xlink">
    <!-- Generator: Sketch 47.1 (45422) - http://www.bohemiancoding.com/sketch -->
    <title>icon-close</title>
    <desc>Created with Sketch.</desc>
    <defs></defs>
    <g id="Page-1" stroke="none" stroke-width="1" fill="none" fill-rule="evenodd">
        <g id="我要咨询" transform="translate(-1261.000000, -191.000000)">
            <g id="Group-7" font-size="24" font-family="MicrosoftYaHei-Bold, Microsoft YaHei" fill="#333333" font-weight="bold">
                <g id="详情" transform="translate(1119.000000, 168.000000)">
                    <text id="东三环朝阳区百子湾恒大豪华写字楼可注">
                        <tspan x="0" y="25">东三环朝阳区百子湾恒大豪华写字楼可注</tspan>
                    </text>
                    <text id="册公司">
                        <tspan x="0" y="66">册公司</tspan>
                    </text>
                </g>
            </g>
            <rect id="Rectangle" fill-opacity="0.5" fill="#000000" x="0" y="0" width="1920" height="1593"></rect>
            <rect id="Rectangle-4" fill="#FFFFFF" x="620" y="172" width="680" height="336" rx="8"></rect>
            <g id="icon-close" transform="translate(1261.000000, 191.000000)" fill-rule="nonzero" fill="#333333">
                <path d="M11.7303613,10.0079561 L18.6233161,3.116136 C19.0813025,2.63729115 19.0727513,1.88025418 18.6040653,1.41187673 C18.1353793,0.943499277 17.3783368,0.935446574 16.8997937,1.3937483 L10.0079736,8.28556842 L3.11615346,1.39261365 C2.81082773,1.07338243 2.3566522,0.944379056 1.92910516,1.05544613 C1.50155811,1.16651321 1.16759398,1.50025748 1.05624538,1.92773129 C0.94489677,2.3552051 1.07360102,2.80946548 1.39263111,3.11500137 L8.28558588,10.0068215 L1.39263111,16.8986416 C1.07360091,17.2041775 0.944896562,17.6584379 1.05624516,18.0859118 C1.16759375,18.5133857 1.50155794,18.84713 1.92910506,18.9581971 C2.35665217,19.0692641 2.81082776,18.9402607 3.11615346,18.6210293 L10.0079736,11.7303438 L16.8997937,18.622164 C17.2051194,18.9413952 17.659295,19.0703986 18.086842,18.9593315 C18.514389,18.8482644 18.8483532,18.5145201 18.9597018,18.0870463 C19.0710504,17.6595725 18.9423461,17.2053121 18.6233161,16.8997762 L11.7303613,10.0079561 Z" id="Shape"></path>
            </g>
        </g>
    </g>
</svg>