<?xml version="1.0" encoding="UTF-8"?>
<svg width="20px" height="20px" viewBox="0 0 20 20" version="1.1" xmlns="http://www.w3.org/2000/svg" xmlns:xlink="http://www.w3.org/1999/xlink">
    <!-- Generator: Sketch 47.1 (45422) - http://www.bohemiancoding.com/sketch -->
    <title>搜索</title>
    <desc>Created with Sketch.</desc>
    <defs></defs>
    <g id="Page-1" stroke="none" stroke-width="1" fill="none" fill-rule="evenodd">
        <g id="新房列表" transform="translate(-1084.000000, -148.000000)" fill-rule="nonzero" fill="#3886F8">
            <g id="搜索" transform="translate(360.000000, 130.000000)">
                <g id="icon-search-blue" transform="translate(724.000000, 18.000000)">
                    <g id="搜索">
                        <path d="M16.1153731,14.9549463 L16.1153731,14.9549463 L19.7184852,18.5772365 C20.0726894,18.8973407 20.0726894,19.4297362 19.7184852,19.748729 C19.4009228,20.0688332 18.8712819,20.0688332 18.5526092,19.748729 L14.9139657,16.1631173 C14.2077779,16.7666471 13.4294169,17.2279084 12.5822137,17.5835797 C11.5218217,18.0437295 10.3204142,18.2571323 9.11900674,18.2571323 C7.88317817,18.2571323 6.71730217,18.0081624 5.62137872,17.5835797 C4.52656564,17.121207 3.5017051,16.4476544 2.68892297,15.5951547 C1.84171974,14.7426549 1.16995308,13.7478867 0.710264835,12.6119613 L0.67473338,12.5775057 C0.251686961,11.5116032 0.00407709127,10.3412222 0.00407709127,9.13416259 C0.00407709127,7.89153586 0.251686941,6.72004341 0.67473338,5.65525235 C1.13442162,4.51932703 1.80618828,3.52567024 2.65339151,2.6731705 C4.27895577,1.00484966 6.57517633,0.0111928715 9.08458564,0.0111928715 C10.2848827,0.0111928715 11.4862902,0.259051325 12.5466822,0.721424076 L12.5466822,0.721424076 L12.5466822,0.721424076 C13.6414953,1.18268534 14.6663558,1.8573494 15.5146694,2.70873765 L15.5502009,2.74430478 C16.3618726,3.56123737 17.0336393,4.55489416 17.4933275,5.65525235 L17.4933275,5.69081948 C17.9174843,6.75561054 18.1639838,7.92710299 18.1639838,9.13416257 C18.1639838,10.3767893 17.916374,11.5482817 17.4566857,12.6130728 C17.141344,13.4655726 16.6816558,14.2813937 16.1153731,14.9549463 L16.1153731,14.9549463 L16.1153731,14.9549463 Z M11.9459785,2.24747639 L11.9459785,2.24747639 C11.0632438,1.89291653 10.1105565,1.67951371 9.12011711,1.67951371 C7.07039605,1.67951371 5.19722195,2.49644631 3.854799,3.84466295 C3.18414271,4.51932703 2.61897043,5.37182677 2.2303451,6.25878215 C1.87614086,7.14684902 1.66406247,8.10493867 1.66406247,9.097484 C1.66406247,10.0922522 1.84171976,11.0514534 2.19481364,11.9372973 L2.19481364,11.9739759 C2.58343898,12.8620428 3.1130798,13.7123196 3.82037789,14.3880951 C4.49103418,15.0616477 5.30381631,15.6296103 6.22208247,16.0208488 C7.07039605,16.3765201 8.05972512,16.589923 9.0490542,16.589923 C10.0383833,16.589923 11.0277123,16.3776316 11.8749156,16.0208488 C12.7576503,15.6296103 13.6070742,15.0983263 14.2777305,14.4225508 L14.2777305,14.4225508 C14.9483868,13.7478867 15.5135591,12.8964985 15.9021844,12.0084316 C16.2552783,11.1570433 16.468467,10.1633865 16.468467,9.16861827 C16.468467,8.17496149 16.2563886,7.21687183 15.9388262,6.36437211 L15.9021844,6.32880498 C15.513559,5.4418496 15.0194497,4.62491699 14.3487934,3.95025293 L14.3132619,3.9146858 C13.6781371,3.16999892 12.8642446,2.63649191 11.9459785,2.24747639 L11.9459785,2.24747639 L11.9459785,2.24747639 L11.9459785,2.24747639 Z M5.19167015,12.566391 L5.19167015,12.566391 C5.3915346,12.7675676 5.36710674,13.0932291 5.19167015,13.2688418 C4.9918057,13.4711299 4.66758112,13.4444546 4.49214455,13.2688418 C3.94251729,12.7175513 3.49282227,12.0640052 3.21856381,11.3371019 L3.21856381,11.3371019 C2.91876712,10.6324281 2.76886877,9.87996092 2.76886877,9.07747747 C2.76886877,8.27388255 2.9187671,7.52030392 3.21856379,6.81785303 C3.49282225,6.08983827 3.94251727,5.43740367 4.49214453,4.88500163 C4.69200899,4.68382502 4.99180568,4.68382502 5.19167013,4.88500163 C5.39153458,5.08617823 5.39153458,5.38738739 5.19167013,5.58745251 C4.74197511,6.03982199 4.39221232,6.59222404 4.11795386,7.16907847 C3.89255117,7.7470444 3.76819105,8.37391512 3.74265282,9.05191359 C3.74265282,9.70434819 3.86812329,10.3323304 4.09241563,10.9091848 L4.09241563,10.9592011 C4.39221232,11.5616195 4.74197511,12.11291 5.19167015,12.566391 L5.19167015,12.566391 L5.19167015,12.566391 Z" id="Shape"></path>
                    </g>
                </g>
            </g>
        </g>
    </g>
</svg>